<svg width="30" height="30" viewBox="0 0 30 30" fill="none" xmlns="http://www.w3.org/2000/svg">
<circle cx="15" cy="15" r="15" fill="url(#paint0_linear)"/>
<path d="M9.37353 21.7504C9.37353 21.7504 8.24854 21.7504 8.24854 20.6254C8.24854 19.5004 9.37353 16.1254 14.9985 16.1254C20.6235 16.1254 21.7485 19.5004 21.7485 20.6254C21.7485 21.7504 20.6235 21.7504 20.6235 21.7504H9.37353ZM14.9985 15.0004C15.8936 15.0004 16.7521 14.6448 17.385 14.0118C18.018 13.3789 18.3735 12.5205 18.3735 11.6254C18.3735 10.7303 18.018 9.87182 17.385 9.23888C16.7521 8.60595 15.8936 8.25037 14.9985 8.25037C14.1034 8.25037 13.245 8.60595 12.612 9.23888C11.9791 9.87182 11.6235 10.7303 11.6235 11.6254C11.6235 12.5205 11.9791 13.3789 12.612 14.0118C13.245 14.6448 14.1034 15.0004 14.9985 15.0004Z" fill="white"/>
<defs>
<linearGradient id="paint0_linear" x1="0" y1="15" x2="30" y2="15" gradientUnits="userSpaceOnUse">
<stop stop-color="#FF2592"/>
<stop offset="1" stop-color="#FF88C0"/>
</linearGradient>
</defs>
</svg>
