<svg width="16" height="16" viewBox="0 0 16 16" fill="none" xmlns="http://www.w3.org/2000/svg">
<path d="M8.75299 11.14L13.549 5.65898C14.115 5.01198 13.655 3.99998 12.796 3.99998L3.20399 3.99998C3.01174 3.99981 2.82353 4.05507 2.66188 4.15912C2.50023 4.26317 2.372 4.41161 2.29254 4.58667C2.21308 4.76173 2.18577 4.95598 2.21387 5.14615C2.24197 5.33633 2.3243 5.51438 2.45099 5.65898L7.24699 11.139C7.34085 11.2464 7.4566 11.3325 7.58648 11.3915C7.71636 11.4504 7.85735 11.481 7.99999 11.481C8.14263 11.481 8.28362 11.4504 8.4135 11.3915C8.54337 11.3325 8.65913 11.2464 8.75299 11.139V11.14Z" fill="#53326C"/>
</svg>
