<svg width="45" height="45" viewBox="0 0 45 45" fill="none" xmlns="http://www.w3.org/2000/svg">
<path d="M29.4046 0H15.591C2.98535 0 -0.00292969 2.98828 -0.00292969 15.5939V29.4075C-0.00292969 42.0131 2.98535 45.0014 15.591 45.0014H29.4046C42.0102 45.0014 44.9985 42.0131 44.9985 29.4075V15.5939C44.9985 2.98828 41.9807 0 29.4046 0ZM36.3261 32.1019H33.0594C31.8219 32.1019 31.4408 31.1203 29.2147 28.8647C27.2811 26.9902 26.4247 26.7413 25.948 26.7413C25.2744 26.7413 25.0832 26.9311 25.0832 27.855V30.8067C25.0832 31.5984 24.8343 32.0737 22.7389 32.0737C19.2739 32.0737 15.4293 29.9784 12.7335 26.0747C8.66801 20.3541 7.55566 16.0692 7.55566 15.1833C7.55566 14.7066 7.74551 14.2608 8.66098 14.2608H11.9347C12.763 14.2608 13.078 14.6419 13.4 15.5278C15.0186 20.2008 17.7144 24.2944 18.8268 24.2944C19.2374 24.2944 19.4272 24.1045 19.4272 23.0569V18.2306C19.3021 16.0045 18.1307 15.8133 18.1307 15.023C18.1307 14.6419 18.4457 14.2608 18.9505 14.2608H24.0988C24.7949 14.2608 25.0508 14.6419 25.0508 15.4617V21.9727C25.0508 22.6758 25.3658 22.9247 25.5557 22.9247C25.9663 22.9247 26.3179 22.6758 27.0786 21.9136C29.4299 19.2769 31.1146 15.2114 31.1146 15.2114C31.3339 14.7347 31.715 14.2889 32.5433 14.2889H35.8171C36.7986 14.2889 37.018 14.7938 36.7986 15.4969C36.388 17.4009 32.3816 23.0555 32.3816 23.0555C32.0371 23.6264 31.9049 23.8753 32.3816 24.5123C32.7332 24.9891 33.8764 25.9777 34.6372 26.8636C36.0364 28.4527 37.1122 29.7858 37.3991 30.7083C37.7211 31.6238 37.2458 32.1005 36.3219 32.1005L36.3261 32.1019Z" fill="#7C68A5"/>
</svg>
