<svg width="45" height="45" viewBox="0 0 45 45" fill="none" xmlns="http://www.w3.org/2000/svg">
<path d="M39.3551 45H5.63807C4.08685 45 2.76246 44.4507 1.6649 43.3521C0.567335 42.2534 0.0185547 40.9277 0.0185547 39.375V5.625C0.0185547 4.07227 0.567335 2.74658 1.6649 1.64795C2.76246 0.549316 4.08685 0 5.63807 0H39.3551C40.9064 0 42.2307 0.549316 43.3283 1.64795C44.4259 2.74658 44.9747 4.07227 44.9747 5.625V39.375C44.9747 40.9277 44.4259 42.2534 43.3283 43.3521C42.2307 44.4507 40.9064 45 39.3551 45ZM14.0673 16.875V12.6562C14.0673 11.8652 13.8259 11.0889 13.3429 10.3271C12.86 9.56543 12.3259 9.02344 11.7405 8.70117C11.1551 8.37891 10.7015 8.36426 10.3795 8.65723L7.17465 11.9092C6.2966 12.7881 5.79904 13.9673 5.68197 15.4468C5.5649 16.9263 5.79173 18.5376 6.36246 20.2808C6.93319 22.0239 7.84782 23.8696 9.10636 25.8179C10.3649 27.7661 11.8722 29.6191 13.6283 31.377C15.3844 33.1348 17.2356 34.6436 19.182 35.9033C21.1283 37.1631 22.9722 38.0859 24.7137 38.6719C26.4551 39.2578 28.0649 39.4922 29.5429 39.375C31.021 39.2578 32.199 38.7598 33.0771 37.8809L36.3259 34.6289C36.6186 34.3359 36.6039 33.8892 36.282 33.2886C35.96 32.688 35.4186 32.146 34.6576 31.6626C33.8966 31.1792 33.121 30.9375 32.3307 30.9375H28.1161L25.2625 32.6953C23.9454 32.3438 22.321 31.3916 20.3893 29.8389C18.4576 28.2861 16.7161 26.543 15.1649 24.6094C13.6137 22.6758 12.6625 21.0498 12.3112 19.7314L14.0673 16.875ZM30.8381 23.9062L33.6917 24.3896C33.4576 20.874 32.0966 17.8711 29.6088 15.3809C27.121 12.8906 24.1356 11.5283 20.6527 11.2939L21.0917 14.1504C23.6381 14.4727 25.8186 15.542 27.6332 17.3584C29.4478 19.1748 30.5161 21.3574 30.8381 23.9062ZM21.6186 17.0947L22.1454 20.2588C23.2868 20.8154 24.1503 21.6797 24.7356 22.8516L27.8966 23.3789C27.5161 21.8262 26.7625 20.4858 25.6356 19.3579C24.5088 18.23 23.1698 17.4756 21.6186 17.0947ZM19.6868 5.625L20.1698 8.48145C23.0966 8.54004 25.7966 9.30908 28.2698 10.7886C30.7429 12.2681 32.7186 14.2456 34.1966 16.7212C35.6747 19.1968 36.4429 21.8994 36.5015 24.8291L39.3551 25.3125C39.3551 22.6465 38.8356 20.0977 37.7966 17.666C36.7576 15.2344 35.36 13.1396 33.6039 11.3818C31.8478 9.62402 29.7551 8.2251 27.3259 7.18506C24.8966 6.14502 22.3503 5.625 19.6868 5.625Z" fill="#7C68A5"/>
</svg>
