<svg width="18" height="17" viewBox="0 0 18 17" fill="none" xmlns="http://www.w3.org/2000/svg">
<path fill-rule="evenodd" clip-rule="evenodd" d="M9.18764 12.6695C9.12778 12.6098 9.08028 12.5389 9.04787 12.4608C9.01546 12.3827 8.99878 12.299 8.99878 12.2144C8.99878 12.1298 9.01546 12.0461 9.04787 11.968C9.08028 11.8899 9.12778 11.819 9.18764 11.7593L12.5909 8.35726L9.18764 4.95526C9.06693 4.83455 8.99912 4.67083 8.99912 4.50011C8.99912 4.3294 9.06693 4.16568 9.18764 4.04497C9.30835 3.92426 9.47207 3.85645 9.64279 3.85645C9.8135 3.85645 9.97722 3.92426 10.0979 4.04497L13.9551 7.90211C14.0149 7.96183 14.0624 8.03277 14.0948 8.11087C14.1273 8.18897 14.1439 8.2727 14.1439 8.35726C14.1439 8.44182 14.1273 8.52554 14.0948 8.60364C14.0624 8.68174 14.0149 8.75269 13.9551 8.8124L10.0979 12.6695C10.0382 12.7294 9.96727 12.7769 9.88917 12.8093C9.81107 12.8417 9.72734 12.8584 9.64279 12.8584C9.55823 12.8584 9.4745 12.8417 9.3964 12.8093C9.3183 12.7769 9.24736 12.7294 9.18764 12.6695Z" fill="white"/>
<path fill-rule="evenodd" clip-rule="evenodd" d="M0 8.35721C0 8.18672 0.0677294 8.0232 0.188288 7.90264C0.308848 7.78208 0.472361 7.71436 0.642857 7.71436H12.2143C12.3848 7.71436 12.5483 7.78208 12.6689 7.90264C12.7894 8.0232 12.8571 8.18672 12.8571 8.35721C12.8571 8.52771 12.7894 8.69122 12.6689 8.81178C12.5483 8.93234 12.3848 9.00007 12.2143 9.00007H0.642857C0.472361 9.00007 0.308848 8.93234 0.188288 8.81178C0.0677294 8.69122 0 8.52771 0 8.35721Z" fill="white"/>
<path fill-rule="evenodd" clip-rule="evenodd" d="M16.0715 16.7143C16.583 16.7143 17.0735 16.5111 17.4352 16.1494C17.7968 15.7877 18 15.2972 18 14.7857V1.92857C18 1.41708 17.7968 0.926543 17.4352 0.564866C17.0735 0.203188 16.583 0 16.0715 0H5.78575C5.27426 0 4.78372 0.203188 4.42204 0.564866C4.06037 0.926543 3.85718 1.41708 3.85718 1.92857V3.85714C3.85718 4.02764 3.92491 4.19115 4.04547 4.31171C4.16603 4.43227 4.32954 4.5 4.50003 4.5C4.67053 4.5 4.83404 4.43227 4.9546 4.31171C5.07516 4.19115 5.14289 4.02764 5.14289 3.85714V1.92857C5.14289 1.75808 5.21062 1.59456 5.33118 1.474C5.45174 1.35344 5.61525 1.28571 5.78575 1.28571H16.0715C16.242 1.28571 16.4055 1.35344 16.526 1.474C16.6466 1.59456 16.7143 1.75808 16.7143 1.92857V14.7857C16.7143 14.9562 16.6466 15.1197 16.526 15.2403C16.4055 15.3608 16.242 15.4286 16.0715 15.4286H5.78575C5.61525 15.4286 5.45174 15.3608 5.33118 15.2403C5.21062 15.1197 5.14289 14.9562 5.14289 14.7857V12.8571C5.14289 12.6866 5.07516 12.5231 4.9546 12.4026C4.83404 12.282 4.67053 12.2143 4.50003 12.2143C4.32954 12.2143 4.16603 12.282 4.04547 12.4026C3.92491 12.5231 3.85718 12.6866 3.85718 12.8571V14.7857C3.85718 15.2972 4.06037 15.7877 4.42204 16.1494C4.78372 16.5111 5.27426 16.7143 5.78575 16.7143H16.0715Z" fill="white"/>
</svg>
