<svg width="45" height="45" viewBox="0 0 45 45" fill="none" xmlns="http://www.w3.org/2000/svg">
<path d="M45 10.2375C44.9747 9.26679 44.8996 8.29801 44.775 7.335C44.607 6.49153 44.327 5.67429 43.9425 4.905C43.5403 4.07049 43.0003 3.30981 42.345 2.655C41.6837 2.00746 40.9244 1.46833 40.095 1.0575C39.3247 0.6805 38.5075 0.40809 37.665 0.2475C36.7111 0.104624 35.7492 0.0219602 34.785 0H10.2375C9.26679 0.0252819 8.29801 0.100381 7.335 0.225C6.49153 0.393004 5.67429 0.672983 4.905 1.0575C4.07049 1.45966 3.30981 1.99974 2.655 2.655C2.00746 3.3163 1.46833 4.07564 1.0575 4.905C0.6805 5.67532 0.40809 6.49255 0.2475 7.335C0.104624 8.28885 0.0219602 9.25076 0 10.215V34.7625C0.0252819 35.7332 0.100381 36.702 0.225 37.665C0.393004 38.5085 0.672983 39.3257 1.0575 40.095C1.45966 40.9295 1.99974 41.6902 2.655 42.345C3.3163 42.9925 4.07564 43.5317 4.905 43.9425C5.67532 44.3195 6.49255 44.5919 7.335 44.7525C8.28885 44.8954 9.25076 44.978 10.215 45H34.7625C35.7332 44.9747 36.702 44.8996 37.665 44.775C38.5085 44.607 39.3257 44.327 40.095 43.9425C40.9295 43.5403 41.6902 43.0003 42.345 42.345C42.9925 41.6837 43.5317 40.9244 43.9425 40.095C44.3195 39.3247 44.5919 38.5075 44.7525 37.665C44.8954 36.7111 44.978 35.7492 45 34.785V11.43V10.2375ZM23.0175 38.25C20.3154 38.2367 17.6605 37.5401 15.3 36.225L6.75 38.475L9 30.105C7.54901 27.667 6.77247 24.887 6.75 22.05C6.75896 18.8616 7.71121 15.7471 9.48681 13.0988C11.2624 10.4506 13.782 8.38694 16.7281 7.16786C19.6743 5.94878 22.9153 5.62876 26.043 6.24811C29.1707 6.86746 32.0452 8.39849 34.3045 10.6484C36.5637 12.8982 38.1067 15.7663 38.739 18.8914C39.3714 22.0165 39.0648 25.2589 37.858 28.2101C36.6512 31.1613 34.5981 33.6894 31.9572 35.476C29.3163 37.2626 26.2059 38.2278 23.0175 38.25ZM23.0175 8.7075C20.6321 8.7348 18.2965 9.39371 16.2485 10.6172C14.2005 11.8406 12.5133 13.5849 11.3587 15.6724C10.204 17.7599 9.62314 20.1162 9.67519 22.5012C9.72724 24.8862 10.4104 27.2148 11.655 29.25L11.97 29.7675L10.62 34.695L15.75 33.3L16.245 33.5925C18.2915 34.798 20.6199 35.4421 22.995 35.46C26.5754 35.46 30.0092 34.0377 32.5409 31.5059C35.0727 28.9742 36.495 25.5404 36.495 21.96C36.495 18.3796 35.0727 14.9458 32.5409 12.4141C30.0092 9.88232 26.5754 8.46 22.995 8.46L23.0175 8.7075ZM30.8925 27.8775C30.5978 28.369 30.2032 28.7933 29.7342 29.1227C29.2653 29.4521 28.7324 29.6795 28.17 29.79C27.3297 29.9436 26.4646 29.8895 25.65 29.6325C24.8835 29.3929 24.1322 29.1074 23.4 28.7775C20.6184 27.3817 18.2462 25.2886 16.515 22.7025C15.5742 21.5043 15.0034 20.0577 14.8725 18.54C14.8591 17.9095 14.9784 17.2833 15.2226 16.7019C15.4668 16.1204 15.8304 15.5968 16.29 15.165C16.4254 15.0115 16.5914 14.8882 16.7775 14.8029C16.9635 14.7176 17.1654 14.6724 17.37 14.67H18C18.2475 14.67 18.585 14.67 18.9 15.3675C19.215 16.065 20.0475 18.1575 20.16 18.36C20.2153 18.4679 20.2441 18.5875 20.2441 18.7087C20.2441 18.83 20.2153 18.9496 20.16 19.0575C20.0605 19.302 19.9239 19.5297 19.755 19.7325C19.5525 19.98 19.3275 20.2725 19.1475 20.4525C18.9675 20.6325 18.7425 20.8575 18.9675 21.2625C19.5797 22.2957 20.3375 23.2353 21.2175 24.0525C22.1758 24.8993 23.2715 25.5765 24.4575 26.055C24.8625 26.2575 25.11 26.235 25.335 26.055C25.56 25.875 26.3475 24.885 26.6175 24.48C26.8875 24.075 27.1575 24.1425 27.5175 24.2775C27.8775 24.4125 29.88 25.38 30.285 25.5825C30.69 25.785 30.9375 25.875 31.05 26.055C31.1476 26.6439 31.0934 27.2479 30.8925 27.81V27.8775Z" fill="#7C68A5"/>
</svg>
