<svg width="164" height="43" viewBox="0 0 164 43" fill="none" xmlns="http://www.w3.org/2000/svg">
<path d="M73.9745 11.384H79.6625C81.1345 11.384 82.2385 11.792 82.9745 12.608C83.7105 13.424 84.0865 14.632 84.1025 16.232L84.1505 25.88C84.1665 27.912 83.8145 29.44 83.0945 30.464C82.3745 31.488 81.1825 32 79.5185 32H73.9745V11.384ZM78.8465 28.352C79.5985 28.352 79.9745 27.984 79.9745 27.248V16.616C79.9745 16.152 79.9345 15.808 79.8545 15.584C79.7905 15.344 79.6625 15.184 79.4705 15.104C79.2785 15.024 78.9825 14.984 78.5825 14.984H78.1265V28.352H78.8465ZM85.2584 32L87.2504 11.384H94.2344L96.2024 32H92.2904L92.0024 28.664H89.5064L89.2664 32H85.2584ZM89.8184 25.376H91.6904L90.7784 14.888H90.5864L89.8184 25.376ZM99.2349 32V15.344H96.7869V11.384H105.811V15.344H103.363V32H99.2349ZM106.423 32L108.415 11.384H115.399L117.367 32H113.455L113.167 28.664H110.671L110.431 32H106.423ZM110.983 25.376H112.855L111.943 14.888H111.751L110.983 25.376ZM118.623 32V11.384H124.911L126.639 23.96L128.367 11.384H134.703V32H130.935V17.144L128.559 32H124.863L122.343 17.144V32H118.623ZM136.529 11.384H141.977C143.625 11.384 144.801 11.92 145.505 12.992C146.209 14.048 146.561 15.6 146.561 17.648C146.561 19.696 146.249 21.24 145.625 22.28C145.001 23.32 143.881 23.84 142.265 23.84H140.585V32H136.529V11.384ZM140.825 20.12C141.321 20.12 141.681 20.032 141.905 19.856C142.145 19.664 142.297 19.4 142.361 19.064C142.441 18.712 142.481 18.216 142.481 17.576C142.481 16.712 142.385 16.088 142.193 15.704C142.001 15.32 141.617 15.128 141.041 15.128H140.585V20.12H140.825Z" fill="#310062"/>
<path d="M75.8774 35.9V38H75.6644V36.32L74.8394 37.733H74.7344L73.9094 36.329V38H73.6964V35.9H73.8794L74.7914 37.457L75.6944 35.9H75.8774ZM78.5986 37.439H77.4286L77.1766 38H76.9456L77.9056 35.9H78.1246L79.0846 38H78.8506L78.5986 37.439ZM78.5176 37.259L78.0136 36.131L77.5096 37.259H78.5176ZM81.586 38L81.106 37.325C81.052 37.331 80.996 37.334 80.938 37.334H80.374V38H80.152V35.9H80.938C81.206 35.9 81.416 35.964 81.568 36.092C81.72 36.22 81.796 36.396 81.796 36.62C81.796 36.784 81.754 36.923 81.67 37.037C81.588 37.149 81.47 37.23 81.316 37.28L81.829 38H81.586ZM80.932 37.145C81.14 37.145 81.299 37.099 81.409 37.007C81.519 36.915 81.574 36.786 81.574 36.62C81.574 36.45 81.519 36.32 81.409 36.23C81.299 36.138 81.14 36.092 80.932 36.092H80.374V37.145H80.932ZM83.6909 37.013L83.2619 37.448V38H83.0399V35.9H83.2619V37.169L84.4949 35.9H84.7499L83.8409 36.851L84.8129 38H84.5489L83.6909 37.013ZM87.3778 37.808V38H85.8928V35.9H87.3328V36.092H86.1148V36.839H87.2008V37.028H86.1148V37.808H87.3778ZM89.0276 36.092H88.2896V35.9H89.9876V36.092H89.2496V38H89.0276V36.092ZM91.8483 35.9C92.1163 35.9 92.3263 35.964 92.4783 36.092C92.6303 36.22 92.7063 36.396 92.7063 36.62C92.7063 36.844 92.6303 37.02 92.4783 37.148C92.3263 37.274 92.1163 37.337 91.8483 37.337H91.2843V38H91.0623V35.9H91.8483ZM91.8423 37.142C92.0503 37.142 92.2093 37.097 92.3193 37.007C92.4293 36.915 92.4843 36.786 92.4843 36.62C92.4843 36.45 92.4293 36.32 92.3193 36.23C92.2093 36.138 92.0503 36.092 91.8423 36.092H91.2843V37.142H91.8423ZM93.9063 35.9H94.1283V37.808H95.3043V38H93.9063V35.9ZM97.7157 37.439H96.5457L96.2937 38H96.0627L97.0227 35.9H97.2417L98.2017 38H97.9677L97.7157 37.439ZM97.6347 37.259L97.1307 36.131L96.6267 37.259H97.6347ZM100.152 38.018C99.9438 38.018 99.7558 37.972 99.5878 37.88C99.4218 37.788 99.2908 37.661 99.1948 37.499C99.1008 37.335 99.0538 37.152 99.0538 36.95C99.0538 36.748 99.1008 36.566 99.1948 36.404C99.2908 36.24 99.4228 36.112 99.5908 36.02C99.7588 35.928 99.9468 35.882 100.155 35.882C100.311 35.882 100.455 35.908 100.587 35.96C100.719 36.012 100.831 36.088 100.923 36.188L100.782 36.329C100.618 36.163 100.411 36.08 100.161 36.08C99.9948 36.08 99.8438 36.118 99.7078 36.194C99.5718 36.27 99.4648 36.374 99.3868 36.506C99.3108 36.638 99.2728 36.786 99.2728 36.95C99.2728 37.114 99.3108 37.262 99.3868 37.394C99.4648 37.526 99.5718 37.63 99.7078 37.706C99.8438 37.782 99.9948 37.82 100.161 37.82C100.413 37.82 100.62 37.736 100.782 37.568L100.923 37.709C100.831 37.809 100.718 37.886 100.584 37.94C100.452 37.992 100.308 38.018 100.152 38.018ZM103.601 37.808V38H102.116V35.9H103.556V36.092H102.338V36.839H103.424V37.028H102.338V37.808H103.601ZM107.853 35.9H108.708C108.93 35.9 109.126 35.945 109.296 36.035C109.466 36.123 109.598 36.247 109.692 36.407C109.786 36.565 109.833 36.746 109.833 36.95C109.833 37.154 109.786 37.336 109.692 37.496C109.598 37.654 109.466 37.778 109.296 37.868C109.126 37.956 108.93 38 108.708 38H107.853V35.9ZM108.696 37.808C108.88 37.808 109.041 37.772 109.179 37.7C109.317 37.626 109.424 37.525 109.5 37.397C109.576 37.267 109.614 37.118 109.614 36.95C109.614 36.782 109.576 36.634 109.5 36.506C109.424 36.376 109.317 36.275 109.179 36.203C109.041 36.129 108.88 36.092 108.696 36.092H108.075V37.808H108.696ZM112.339 37.439H111.169L110.917 38H110.686L111.646 35.9H111.865L112.825 38H112.591L112.339 37.439ZM112.258 37.259L111.754 36.131L111.25 37.259H112.258ZM114.195 36.092H113.457V35.9H115.155V36.092H114.417V38H114.195V36.092ZM117.442 37.439H116.272L116.02 38H115.789L116.749 35.9H116.968L117.928 38H117.694L117.442 37.439ZM117.361 37.259L116.857 36.131L116.353 37.259H117.361ZM123.439 38L122.959 37.325C122.905 37.331 122.849 37.334 122.791 37.334H122.227V38H122.005V35.9H122.791C123.059 35.9 123.269 35.964 123.421 36.092C123.573 36.22 123.649 36.396 123.649 36.62C123.649 36.784 123.607 36.923 123.523 37.037C123.441 37.149 123.323 37.23 123.169 37.28L123.682 38H123.439ZM122.785 37.145C122.993 37.145 123.152 37.099 123.262 37.007C123.372 36.915 123.427 36.786 123.427 36.62C123.427 36.45 123.372 36.32 123.262 36.23C123.152 36.138 122.993 36.092 122.785 36.092H122.227V37.145H122.785ZM126.378 37.808V38H124.893V35.9H126.333V36.092H125.115V36.839H126.201V37.028H125.115V37.808H126.378ZM128.199 38.018C128.043 38.018 127.893 37.993 127.749 37.943C127.607 37.893 127.497 37.827 127.419 37.745L127.506 37.574C127.582 37.65 127.683 37.712 127.809 37.76C127.935 37.806 128.065 37.829 128.199 37.829C128.387 37.829 128.528 37.795 128.622 37.727C128.716 37.657 128.763 37.567 128.763 37.457C128.763 37.373 128.737 37.306 128.685 37.256C128.635 37.206 128.573 37.168 128.499 37.142C128.425 37.114 128.322 37.084 128.19 37.052C128.032 37.012 127.906 36.974 127.812 36.938C127.718 36.9 127.637 36.843 127.569 36.767C127.503 36.691 127.47 36.588 127.47 36.458C127.47 36.352 127.498 36.256 127.554 36.17C127.61 36.082 127.696 36.012 127.812 35.96C127.928 35.908 128.072 35.882 128.244 35.882C128.364 35.882 128.481 35.899 128.595 35.933C128.711 35.965 128.811 36.01 128.895 36.068L128.82 36.245C128.732 36.187 128.638 36.144 128.538 36.116C128.438 36.086 128.34 36.071 128.244 36.071C128.06 36.071 127.921 36.107 127.827 36.179C127.735 36.249 127.689 36.34 127.689 36.452C127.689 36.536 127.714 36.604 127.764 36.656C127.816 36.706 127.88 36.745 127.956 36.773C128.034 36.799 128.138 36.828 128.268 36.86C128.422 36.898 128.546 36.936 128.64 36.974C128.736 37.01 128.817 37.066 128.883 37.142C128.949 37.216 128.982 37.317 128.982 37.445C128.982 37.551 128.953 37.648 128.895 37.736C128.839 37.822 128.752 37.891 128.634 37.943C128.516 37.993 128.371 38.018 128.199 38.018ZM131.671 37.808V38H130.186V35.9H131.626V36.092H130.408V36.839H131.494V37.028H130.408V37.808H131.671ZM134.23 37.439H133.06L132.808 38H132.577L133.537 35.9H133.756L134.716 38H134.482L134.23 37.439ZM134.149 37.259L133.645 36.131L133.141 37.259H134.149ZM137.217 38L136.737 37.325C136.683 37.331 136.627 37.334 136.569 37.334H136.005V38H135.783V35.9H136.569C136.837 35.9 137.047 35.964 137.199 36.092C137.351 36.22 137.427 36.396 137.427 36.62C137.427 36.784 137.385 36.923 137.301 37.037C137.219 37.149 137.101 37.23 136.947 37.28L137.46 38H137.217ZM136.563 37.145C136.771 37.145 136.93 37.099 137.04 37.007C137.15 36.915 137.205 36.786 137.205 36.62C137.205 36.45 137.15 36.32 137.04 36.23C136.93 36.138 136.771 36.092 136.563 36.092H136.005V37.145H136.563ZM139.583 38.018C139.375 38.018 139.187 37.972 139.019 37.88C138.853 37.788 138.722 37.661 138.626 37.499C138.532 37.335 138.485 37.152 138.485 36.95C138.485 36.748 138.532 36.566 138.626 36.404C138.722 36.24 138.854 36.112 139.022 36.02C139.19 35.928 139.378 35.882 139.586 35.882C139.742 35.882 139.886 35.908 140.018 35.96C140.15 36.012 140.262 36.088 140.354 36.188L140.213 36.329C140.049 36.163 139.842 36.08 139.592 36.08C139.426 36.08 139.275 36.118 139.139 36.194C139.003 36.27 138.896 36.374 138.818 36.506C138.742 36.638 138.704 36.786 138.704 36.95C138.704 37.114 138.742 37.262 138.818 37.394C138.896 37.526 139.003 37.63 139.139 37.706C139.275 37.782 139.426 37.82 139.592 37.82C139.844 37.82 140.051 37.736 140.213 37.568L140.354 37.709C140.262 37.809 140.149 37.886 140.015 37.94C139.883 37.992 139.739 38.018 139.583 38.018ZM143.302 35.9V38H143.083V37.031H141.769V38H141.547V35.9H141.769V36.836H143.083V35.9H143.302Z" fill="#310062"/>
<path d="M29.4279 4.5C29.8634 4.5 30.2488 4.78182 30.3808 5.1968L36.8631 25.5696C36.9501 25.8432 36.9154 26.1411 36.7676 26.3873L34.2706 30.549C34.1021 30.8299 34.0887 31.1774 34.2352 31.4704C34.3975 31.795 34.7292 32 35.0921 32H58.25C58.6642 32 59 31.6642 59 31.25C59 30.8358 58.6642 30.5 58.25 30.5H37.7831C37.3506 30.5 37 30.1494 37 29.7169C37 29.575 37.0386 29.4357 37.1116 29.314L38.2387 27.4354C38.4029 27.1618 38.6879 26.9829 39.0057 26.954L59.7483 25.0683C60.1932 25.0279 60.5573 24.6973 60.6403 24.2583L63.7756 7.68589C63.8922 7.07001 63.4199 6.5 62.7931 6.5H33.7543C33.3078 6.5 32.9154 6.20402 32.7928 5.77472L32.2072 3.72528C32.0846 3.29598 31.6922 3 31.2457 3H24.3338C23.8882 3 23.5409 3.38607 23.5879 3.8291C23.6284 4.21055 23.9502 4.5 24.3338 4.5H29.4279Z" fill="url(#paint0_linear)"/>
<path d="M14.5 9C14.5 8.44772 14.9477 8 15.5 8H25.5C26.0523 8 26.5 8.44772 26.5 9C26.5 9.55228 26.0523 10 25.5 10H15.5C14.9477 10 14.5 9.55228 14.5 9Z" fill="url(#paint1_linear)"/>
<path d="M21 14.5C20.4477 14.5 20 14.9477 20 15.5C20 16.0523 20.4477 16.5 21 16.5H26.5C27.0523 16.5 27.5 16.0523 27.5 15.5C27.5 14.9477 27.0523 14.5 26.5 14.5H21Z" fill="url(#paint2_linear)"/>
<path d="M15 20.5C14.4477 20.5 14 20.9477 14 21.5C14 22.0523 14.4477 22.5 15 22.5H27.5C28.0523 22.5 28.5 22.0523 28.5 21.5C28.5 20.9477 28.0523 20.5 27.5 20.5H15Z" fill="url(#paint3_linear)"/>
<path d="M21.75 25.5C21.3358 25.5 21 25.8358 21 26.25C21 26.6642 21.3358 27 21.75 27H28.25C28.6642 27 29 26.6642 29 26.25C29 25.8358 28.6642 25.5 28.25 25.5H21.75Z" fill="url(#paint4_linear)"/>
<rect x="36" y="31" width="7" height="7" rx="3.5" fill="#FD53A3"/>
<rect x="55" y="31" width="7" height="7" rx="3.5" fill="#FA87BD"/>
<defs>
<linearGradient id="paint0_linear" x1="74.5" y1="27" x2="31" y2="27" gradientUnits="userSpaceOnUse">
<stop stop-color="#F8C1DB"/>
<stop offset="1" stop-color="#FF2A8E"/>
</linearGradient>
<linearGradient id="paint1_linear" x1="16.5" y1="28.5" x2="31" y2="28.5" gradientUnits="userSpaceOnUse">
<stop stop-color="#FF0091"/>
<stop offset="1" stop-color="#FFCEEA"/>
</linearGradient>
<linearGradient id="paint2_linear" x1="16.5" y1="28.5" x2="31" y2="28.5" gradientUnits="userSpaceOnUse">
<stop stop-color="#FF0091"/>
<stop offset="1" stop-color="#FFCEEA"/>
</linearGradient>
<linearGradient id="paint3_linear" x1="16.5" y1="28.5" x2="31" y2="28.5" gradientUnits="userSpaceOnUse">
<stop stop-color="#FF0091"/>
<stop offset="1" stop-color="#FFCEEA"/>
</linearGradient>
<linearGradient id="paint4_linear" x1="16.5" y1="28.5" x2="31" y2="28.5" gradientUnits="userSpaceOnUse">
<stop stop-color="#FF0091"/>
<stop offset="1" stop-color="#FFCEEA"/>
</linearGradient>
</defs>
</svg>
