<svg width="164" height="43" viewBox="0 0 164 43" fill="none" xmlns="http://www.w3.org/2000/svg">
<path d="M72.4703 7.948H79.1063C80.8236 7.948 82.1116 8.424 82.9703 9.376C83.8289 10.328 84.2676 11.7373 84.2863 13.604L84.3423 24.86C84.3609 27.2307 83.9503 29.0133 83.1103 30.208C82.2703 31.4027 80.8796 32 78.9383 32H72.4703V7.948ZM78.1543 27.744C79.0316 27.744 79.4703 27.3147 79.4703 26.456V14.052C79.4703 13.5107 79.4236 13.1093 79.3303 12.848C79.2556 12.568 79.1063 12.3813 78.8823 12.288C78.6583 12.1947 78.3129 12.148 77.8463 12.148H77.3143V27.744H78.1543ZM85.6348 32L87.9588 7.948H96.1068L98.4028 32H93.8388L93.5028 28.108H90.5908L90.3108 32H85.6348ZM90.9548 24.272H93.1388L92.0748 12.036H91.8508L90.9548 24.272ZM101.941 32V12.568H99.0847V7.948H109.613V12.568H106.757V32H101.941ZM110.326 32L112.65 7.948H120.798L123.094 32H118.53L118.194 28.108H115.282L115.002 32H110.326ZM115.646 24.272H117.83L116.766 12.036H116.542L115.646 24.272ZM124.56 32V7.948H131.896L133.912 22.62L135.928 7.948H143.32V32H138.924V14.668L136.152 32H131.84L128.9 14.668V32H124.56ZM145.451 7.948H151.807C153.729 7.948 155.101 8.57333 155.923 9.824C156.744 11.056 157.155 12.8667 157.155 15.256C157.155 17.6453 156.791 19.4467 156.063 20.66C155.335 21.8733 154.028 22.48 152.143 22.48H150.183V32H145.451V7.948ZM150.463 18.14C151.041 18.14 151.461 18.0373 151.723 17.832C152.003 17.608 152.18 17.3 152.255 16.908C152.348 16.4973 152.395 15.9187 152.395 15.172C152.395 14.164 152.283 13.436 152.059 12.988C151.835 12.54 151.387 12.316 150.715 12.316H150.183V18.14H150.463Z" fill="white"/>
<path d="M76.5374 34.9V37H76.3244V35.32L75.4994 36.733H75.3944L74.5694 35.329V37H74.3564V34.9H74.5394L75.4514 36.457L76.3544 34.9H76.5374ZM79.4386 36.439H78.2686L78.0166 37H77.7856L78.7456 34.9H78.9646L79.9246 37H79.6906L79.4386 36.439ZM79.3576 36.259L78.8536 35.131L78.3496 36.259H79.3576ZM82.606 37L82.126 36.325C82.072 36.331 82.016 36.334 81.958 36.334H81.394V37H81.172V34.9H81.958C82.226 34.9 82.436 34.964 82.588 35.092C82.74 35.22 82.816 35.396 82.816 35.62C82.816 35.784 82.774 35.923 82.69 36.037C82.608 36.149 82.49 36.23 82.336 36.28L82.849 37H82.606ZM81.952 36.145C82.16 36.145 82.319 36.099 82.429 36.007C82.539 35.915 82.594 35.786 82.594 35.62C82.594 35.45 82.539 35.32 82.429 35.23C82.319 35.138 82.16 35.092 81.952 35.092H81.394V36.145H81.952ZM84.8909 36.013L84.4619 36.448V37H84.2399V34.9H84.4619V36.169L85.6949 34.9H85.9499L85.0409 35.851L86.0129 37H85.7489L84.8909 36.013ZM88.7578 36.808V37H87.2728V34.9H88.7128V35.092H87.4948V35.839H88.5808V36.028H87.4948V36.808H88.7578ZM90.5876 35.092H89.8496V34.9H91.5476V35.092H90.8096V37H90.5876V35.092ZM93.5883 34.9C93.8563 34.9 94.0663 34.964 94.2183 35.092C94.3703 35.22 94.4463 35.396 94.4463 35.62C94.4463 35.844 94.3703 36.02 94.2183 36.148C94.0663 36.274 93.8563 36.337 93.5883 36.337H93.0243V37H92.8023V34.9H93.5883ZM93.5823 36.142C93.7903 36.142 93.9493 36.097 94.0593 36.007C94.1693 35.915 94.2243 35.786 94.2243 35.62C94.2243 35.45 94.1693 35.32 94.0593 35.23C93.9493 35.138 93.7903 35.092 93.5823 35.092H93.0243V36.142H93.5823ZM95.8263 34.9H96.0483V36.808H97.2243V37H95.8263V34.9ZM99.8157 36.439H98.6457L98.3937 37H98.1627L99.1227 34.9H99.3417L100.302 37H100.068L99.8157 36.439ZM99.7347 36.259L99.2307 35.131L98.7267 36.259H99.7347ZM102.432 37.018C102.224 37.018 102.036 36.972 101.868 36.88C101.702 36.788 101.571 36.661 101.475 36.499C101.381 36.335 101.334 36.152 101.334 35.95C101.334 35.748 101.381 35.566 101.475 35.404C101.571 35.24 101.703 35.112 101.871 35.02C102.039 34.928 102.227 34.882 102.435 34.882C102.591 34.882 102.735 34.908 102.867 34.96C102.999 35.012 103.111 35.088 103.203 35.188L103.062 35.329C102.898 35.163 102.691 35.08 102.441 35.08C102.275 35.08 102.124 35.118 101.988 35.194C101.852 35.27 101.745 35.374 101.667 35.506C101.591 35.638 101.553 35.786 101.553 35.95C101.553 36.114 101.591 36.262 101.667 36.394C101.745 36.526 101.852 36.63 101.988 36.706C102.124 36.782 102.275 36.82 102.441 36.82C102.693 36.82 102.9 36.736 103.062 36.568L103.203 36.709C103.111 36.809 102.998 36.886 102.864 36.94C102.732 36.992 102.588 37.018 102.432 37.018ZM106.061 36.808V37H104.576V34.9H106.016V35.092H104.798V35.839H105.884V36.028H104.798V36.808H106.061ZM110.853 34.9H111.708C111.93 34.9 112.126 34.945 112.296 35.035C112.466 35.123 112.598 35.247 112.692 35.407C112.786 35.565 112.833 35.746 112.833 35.95C112.833 36.154 112.786 36.336 112.692 36.496C112.598 36.654 112.466 36.778 112.296 36.868C112.126 36.956 111.93 37 111.708 37H110.853V34.9ZM111.696 36.808C111.88 36.808 112.041 36.772 112.179 36.7C112.317 36.626 112.424 36.525 112.5 36.397C112.576 36.267 112.614 36.118 112.614 35.95C112.614 35.782 112.576 35.634 112.5 35.506C112.424 35.376 112.317 35.275 112.179 35.203C112.041 35.129 111.88 35.092 111.696 35.092H111.075V36.808H111.696ZM115.519 36.439H114.349L114.097 37H113.866L114.826 34.9H115.045L116.005 37H115.771L115.519 36.439ZM115.438 36.259L114.934 35.131L114.43 36.259H115.438ZM117.555 35.092H116.817V34.9H118.515V35.092H117.777V37H117.555V35.092ZM120.982 36.439H119.812L119.56 37H119.329L120.289 34.9H120.508L121.468 37H121.234L120.982 36.439ZM120.901 36.259L120.397 35.131L119.893 36.259H120.901ZM127.519 37L127.039 36.325C126.985 36.331 126.929 36.334 126.871 36.334H126.307V37H126.085V34.9H126.871C127.139 34.9 127.349 34.964 127.501 35.092C127.653 35.22 127.729 35.396 127.729 35.62C127.729 35.784 127.687 35.923 127.603 36.037C127.521 36.149 127.403 36.23 127.249 36.28L127.762 37H127.519ZM126.865 36.145C127.073 36.145 127.232 36.099 127.342 36.007C127.452 35.915 127.507 35.786 127.507 35.62C127.507 35.45 127.452 35.32 127.342 35.23C127.232 35.138 127.073 35.092 126.865 35.092H126.307V36.145H126.865ZM130.638 36.808V37H129.153V34.9H130.593V35.092H129.375V35.839H130.461V36.028H129.375V36.808H130.638ZM132.639 37.018C132.483 37.018 132.333 36.993 132.189 36.943C132.047 36.893 131.937 36.827 131.859 36.745L131.946 36.574C132.022 36.65 132.123 36.712 132.249 36.76C132.375 36.806 132.505 36.829 132.639 36.829C132.827 36.829 132.968 36.795 133.062 36.727C133.156 36.657 133.203 36.567 133.203 36.457C133.203 36.373 133.177 36.306 133.125 36.256C133.075 36.206 133.013 36.168 132.939 36.142C132.865 36.114 132.762 36.084 132.63 36.052C132.472 36.012 132.346 35.974 132.252 35.938C132.158 35.9 132.077 35.843 132.009 35.767C131.943 35.691 131.91 35.588 131.91 35.458C131.91 35.352 131.938 35.256 131.994 35.17C132.05 35.082 132.136 35.012 132.252 34.96C132.368 34.908 132.512 34.882 132.684 34.882C132.804 34.882 132.921 34.899 133.035 34.933C133.151 34.965 133.251 35.01 133.335 35.068L133.26 35.245C133.172 35.187 133.078 35.144 132.978 35.116C132.878 35.086 132.78 35.071 132.684 35.071C132.5 35.071 132.361 35.107 132.267 35.179C132.175 35.249 132.129 35.34 132.129 35.452C132.129 35.536 132.154 35.604 132.204 35.656C132.256 35.706 132.32 35.745 132.396 35.773C132.474 35.799 132.578 35.828 132.708 35.86C132.862 35.898 132.986 35.936 133.08 35.974C133.176 36.01 133.257 36.066 133.323 36.142C133.389 36.216 133.422 36.317 133.422 36.445C133.422 36.551 133.393 36.648 133.335 36.736C133.279 36.822 133.192 36.891 133.074 36.943C132.956 36.993 132.811 37.018 132.639 37.018ZM136.291 36.808V37H134.806V34.9H136.246V35.092H135.028V35.839H136.114V36.028H135.028V36.808H136.291ZM139.03 36.439H137.86L137.608 37H137.377L138.337 34.9H138.556L139.516 37H139.282L139.03 36.439ZM138.949 36.259L138.445 35.131L137.941 36.259H138.949ZM142.197 37L141.717 36.325C141.663 36.331 141.607 36.334 141.549 36.334H140.985V37H140.763V34.9H141.549C141.817 34.9 142.027 34.964 142.179 35.092C142.331 35.22 142.407 35.396 142.407 35.62C142.407 35.784 142.365 35.923 142.281 36.037C142.199 36.149 142.081 36.23 141.927 36.28L142.44 37H142.197ZM141.543 36.145C141.751 36.145 141.91 36.099 142.02 36.007C142.13 35.915 142.185 35.786 142.185 35.62C142.185 35.45 142.13 35.32 142.02 35.23C141.91 35.138 141.751 35.092 141.543 35.092H140.985V36.145H141.543ZM144.743 37.018C144.535 37.018 144.347 36.972 144.179 36.88C144.013 36.788 143.882 36.661 143.786 36.499C143.692 36.335 143.645 36.152 143.645 35.95C143.645 35.748 143.692 35.566 143.786 35.404C143.882 35.24 144.014 35.112 144.182 35.02C144.35 34.928 144.538 34.882 144.746 34.882C144.902 34.882 145.046 34.908 145.178 34.96C145.31 35.012 145.422 35.088 145.514 35.188L145.373 35.329C145.209 35.163 145.002 35.08 144.752 35.08C144.586 35.08 144.435 35.118 144.299 35.194C144.163 35.27 144.056 35.374 143.978 35.506C143.902 35.638 143.864 35.786 143.864 35.95C143.864 36.114 143.902 36.262 143.978 36.394C144.056 36.526 144.163 36.63 144.299 36.706C144.435 36.782 144.586 36.82 144.752 36.82C145.004 36.82 145.211 36.736 145.373 36.568L145.514 36.709C145.422 36.809 145.309 36.886 145.175 36.94C145.043 36.992 144.899 37.018 144.743 37.018ZM148.642 34.9V37H148.423V36.031H147.109V37H146.887V34.9H147.109V35.836H148.423V34.9H148.642Z" fill="url(#paint0_linear)"/>
<path d="M29.4279 4.5C29.8634 4.5 30.2488 4.78182 30.3808 5.1968L36.8631 25.5696C36.9501 25.8432 36.9154 26.1411 36.7676 26.3873L34.2706 30.549C34.1021 30.8299 34.0887 31.1774 34.2352 31.4704C34.3975 31.795 34.7292 32 35.0921 32H58.25C58.6642 32 59 31.6642 59 31.25C59 30.8358 58.6642 30.5 58.25 30.5H37.7831C37.3506 30.5 37 30.1494 37 29.7169C37 29.575 37.0386 29.4357 37.1116 29.314L38.2387 27.4354C38.4029 27.1618 38.6879 26.9829 39.0057 26.954L59.7483 25.0683C60.1932 25.0279 60.5573 24.6973 60.6403 24.2583L63.7756 7.68589C63.8922 7.07001 63.4199 6.5 62.7931 6.5H33.7543C33.3078 6.5 32.9154 6.20402 32.7928 5.77472L32.2072 3.72528C32.0846 3.29598 31.6922 3 31.2457 3H24.3338C23.8882 3 23.5409 3.38607 23.5879 3.8291C23.6284 4.21055 23.9502 4.5 24.3338 4.5H29.4279Z" fill="url(#paint1_linear)"/>
<path d="M14.5 9C14.5 8.44772 14.9477 8 15.5 8H25.5C26.0523 8 26.5 8.44772 26.5 9C26.5 9.55228 26.0523 10 25.5 10H15.5C14.9477 10 14.5 9.55228 14.5 9Z" fill="url(#paint2_linear)"/>
<path d="M21 14.5C20.4477 14.5 20 14.9477 20 15.5C20 16.0523 20.4477 16.5 21 16.5H26.5C27.0523 16.5 27.5 16.0523 27.5 15.5C27.5 14.9477 27.0523 14.5 26.5 14.5H21Z" fill="url(#paint3_linear)"/>
<path d="M15 20.5C14.4477 20.5 14 20.9477 14 21.5C14 22.0523 14.4477 22.5 15 22.5H27.5C28.0523 22.5 28.5 22.0523 28.5 21.5C28.5 20.9477 28.0523 20.5 27.5 20.5H15Z" fill="url(#paint4_linear)"/>
<path d="M21.75 25.5C21.3358 25.5 21 25.8358 21 26.25C21 26.6642 21.3358 27 21.75 27H28.25C28.6642 27 29 26.6642 29 26.25C29 25.8358 28.6642 25.5 28.25 25.5H21.75Z" fill="url(#paint5_linear)"/>
<rect x="36" y="31" width="7" height="7" rx="3.5" fill="#FD53A3"/>
<rect x="55" y="31" width="7" height="7" rx="3.5" fill="#FC68AD"/>
<defs>
<linearGradient id="paint0_linear" x1="74.5282" y1="38" x2="152.169" y2="38" gradientUnits="userSpaceOnUse">
<stop stop-color="#FF0091"/>
<stop offset="1" stop-color="#FFCEEA"/>
<stop offset="1" stop-color="#FFA4D8"/>
</linearGradient>
<linearGradient id="paint1_linear" x1="95" y1="28.5" x2="31" y2="27" gradientUnits="userSpaceOnUse">
<stop stop-color="#F8C1DB"/>
<stop offset="1" stop-color="#FF2A8E"/>
</linearGradient>
<linearGradient id="paint2_linear" x1="16.5" y1="28.5" x2="31" y2="28.5" gradientUnits="userSpaceOnUse">
<stop stop-color="#FF0091"/>
<stop offset="1" stop-color="#FFCEEA"/>
</linearGradient>
<linearGradient id="paint3_linear" x1="16.5" y1="28.5" x2="31" y2="28.5" gradientUnits="userSpaceOnUse">
<stop stop-color="#FF0091"/>
<stop offset="1" stop-color="#FFCEEA"/>
</linearGradient>
<linearGradient id="paint4_linear" x1="16.5" y1="28.5" x2="31" y2="28.5" gradientUnits="userSpaceOnUse">
<stop stop-color="#FF0091"/>
<stop offset="1" stop-color="#FFCEEA"/>
</linearGradient>
<linearGradient id="paint5_linear" x1="16.5" y1="28.5" x2="31" y2="28.5" gradientUnits="userSpaceOnUse">
<stop stop-color="#FF0091"/>
<stop offset="1" stop-color="#FFCEEA"/>
</linearGradient>
</defs>
</svg>
