<svg width="164" height="43" viewBox="0 0 164 43" fill="none" xmlns="http://www.w3.org/2000/svg">
<path d="M72.4703 7.948H79.1063C80.8236 7.948 82.1116 8.424 82.9703 9.376C83.8289 10.328 84.2676 11.7373 84.2863 13.604L84.3423 24.86C84.3609 27.2307 83.9503 29.0133 83.1103 30.208C82.2703 31.4027 80.8796 32 78.9383 32H72.4703V7.948ZM78.1543 27.744C79.0316 27.744 79.4703 27.3147 79.4703 26.456V14.052C79.4703 13.5107 79.4236 13.1093 79.3303 12.848C79.2556 12.568 79.1063 12.3813 78.8823 12.288C78.6583 12.1947 78.3129 12.148 77.8463 12.148H77.3143V27.744H78.1543ZM85.6348 32L87.9588 7.948H96.1068L98.4028 32H93.8388L93.5028 28.108H90.5908L90.3108 32H85.6348ZM90.9548 24.272H93.1388L92.0748 12.036H91.8508L90.9548 24.272ZM101.941 32V12.568H99.0847V7.948H109.613V12.568H106.757V32H101.941ZM110.326 32L112.65 7.948H120.798L123.094 32H118.53L118.194 28.108H115.282L115.002 32H110.326ZM115.646 24.272H117.83L116.766 12.036H116.542L115.646 24.272ZM124.56 32V7.948H131.896L133.912 22.62L135.928 7.948H143.32V32H138.924V14.668L136.152 32H131.84L128.9 14.668V32H124.56ZM145.451 7.948H151.807C153.729 7.948 155.101 8.57333 155.923 9.824C156.744 11.056 157.155 12.8667 157.155 15.256C157.155 17.6453 156.791 19.4467 156.063 20.66C155.335 21.8733 154.028 22.48 152.143 22.48H150.183V32H145.451V7.948ZM150.463 18.14C151.041 18.14 151.461 18.0373 151.723 17.832C152.003 17.608 152.18 17.3 152.255 16.908C152.348 16.4973 152.395 15.9187 152.395 15.172C152.395 14.164 152.283 13.436 152.059 12.988C151.835 12.54 151.387 12.316 150.715 12.316H150.183V18.14H150.463Z" fill="#310062"/>
<path d="M75.5374 35.9V38H75.3244V36.32L74.4994 37.733H74.3944L73.5694 36.329V38H73.3564V35.9H73.5394L74.4514 37.457L75.3544 35.9H75.5374ZM78.4386 37.439H77.2686L77.0166 38H76.7856L77.7456 35.9H77.9646L78.9246 38H78.6906L78.4386 37.439ZM78.3576 37.259L77.8536 36.131L77.3496 37.259H78.3576ZM81.606 38L81.126 37.325C81.072 37.331 81.016 37.334 80.958 37.334H80.394V38H80.172V35.9H80.958C81.226 35.9 81.436 35.964 81.588 36.092C81.74 36.22 81.816 36.396 81.816 36.62C81.816 36.784 81.774 36.923 81.69 37.037C81.608 37.149 81.49 37.23 81.336 37.28L81.849 38H81.606ZM80.952 37.145C81.16 37.145 81.319 37.099 81.429 37.007C81.539 36.915 81.594 36.786 81.594 36.62C81.594 36.45 81.539 36.32 81.429 36.23C81.319 36.138 81.16 36.092 80.952 36.092H80.394V37.145H80.952ZM83.8909 37.013L83.4619 37.448V38H83.2399V35.9H83.4619V37.169L84.6949 35.9H84.9499L84.0409 36.851L85.0129 38H84.7489L83.8909 37.013ZM87.7578 37.808V38H86.2728V35.9H87.7128V36.092H86.4948V36.839H87.5808V37.028H86.4948V37.808H87.7578ZM89.5876 36.092H88.8496V35.9H90.5476V36.092H89.8096V38H89.5876V36.092ZM92.5883 35.9C92.8563 35.9 93.0663 35.964 93.2183 36.092C93.3703 36.22 93.4463 36.396 93.4463 36.62C93.4463 36.844 93.3703 37.02 93.2183 37.148C93.0663 37.274 92.8563 37.337 92.5883 37.337H92.0243V38H91.8023V35.9H92.5883ZM92.5823 37.142C92.7903 37.142 92.9493 37.097 93.0593 37.007C93.1693 36.915 93.2243 36.786 93.2243 36.62C93.2243 36.45 93.1693 36.32 93.0593 36.23C92.9493 36.138 92.7903 36.092 92.5823 36.092H92.0243V37.142H92.5823ZM94.8263 35.9H95.0483V37.808H96.2243V38H94.8263V35.9ZM98.8157 37.439H97.6457L97.3937 38H97.1627L98.1227 35.9H98.3417L99.3017 38H99.0677L98.8157 37.439ZM98.7347 37.259L98.2307 36.131L97.7267 37.259H98.7347ZM101.432 38.018C101.224 38.018 101.036 37.972 100.868 37.88C100.702 37.788 100.571 37.661 100.475 37.499C100.381 37.335 100.334 37.152 100.334 36.95C100.334 36.748 100.381 36.566 100.475 36.404C100.571 36.24 100.703 36.112 100.871 36.02C101.039 35.928 101.227 35.882 101.435 35.882C101.591 35.882 101.735 35.908 101.867 35.96C101.999 36.012 102.111 36.088 102.203 36.188L102.062 36.329C101.898 36.163 101.691 36.08 101.441 36.08C101.275 36.08 101.124 36.118 100.988 36.194C100.852 36.27 100.745 36.374 100.667 36.506C100.591 36.638 100.553 36.786 100.553 36.95C100.553 37.114 100.591 37.262 100.667 37.394C100.745 37.526 100.852 37.63 100.988 37.706C101.124 37.782 101.275 37.82 101.441 37.82C101.693 37.82 101.9 37.736 102.062 37.568L102.203 37.709C102.111 37.809 101.998 37.886 101.864 37.94C101.732 37.992 101.588 38.018 101.432 38.018ZM105.061 37.808V38H103.576V35.9H105.016V36.092H103.798V36.839H104.884V37.028H103.798V37.808H105.061ZM109.853 35.9H110.708C110.93 35.9 111.126 35.945 111.296 36.035C111.466 36.123 111.598 36.247 111.692 36.407C111.786 36.565 111.833 36.746 111.833 36.95C111.833 37.154 111.786 37.336 111.692 37.496C111.598 37.654 111.466 37.778 111.296 37.868C111.126 37.956 110.93 38 110.708 38H109.853V35.9ZM110.696 37.808C110.88 37.808 111.041 37.772 111.179 37.7C111.317 37.626 111.424 37.525 111.5 37.397C111.576 37.267 111.614 37.118 111.614 36.95C111.614 36.782 111.576 36.634 111.5 36.506C111.424 36.376 111.317 36.275 111.179 36.203C111.041 36.129 110.88 36.092 110.696 36.092H110.075V37.808H110.696ZM114.519 37.439H113.349L113.097 38H112.866L113.826 35.9H114.045L115.005 38H114.771L114.519 37.439ZM114.438 37.259L113.934 36.131L113.43 37.259H114.438ZM116.555 36.092H115.817V35.9H117.515V36.092H116.777V38H116.555V36.092ZM119.982 37.439H118.812L118.56 38H118.329L119.289 35.9H119.508L120.468 38H120.234L119.982 37.439ZM119.901 37.259L119.397 36.131L118.893 37.259H119.901ZM126.519 38L126.039 37.325C125.985 37.331 125.929 37.334 125.871 37.334H125.307V38H125.085V35.9H125.871C126.139 35.9 126.349 35.964 126.501 36.092C126.653 36.22 126.729 36.396 126.729 36.62C126.729 36.784 126.687 36.923 126.603 37.037C126.521 37.149 126.403 37.23 126.249 37.28L126.762 38H126.519ZM125.865 37.145C126.073 37.145 126.232 37.099 126.342 37.007C126.452 36.915 126.507 36.786 126.507 36.62C126.507 36.45 126.452 36.32 126.342 36.23C126.232 36.138 126.073 36.092 125.865 36.092H125.307V37.145H125.865ZM129.638 37.808V38H128.153V35.9H129.593V36.092H128.375V36.839H129.461V37.028H128.375V37.808H129.638ZM131.639 38.018C131.483 38.018 131.333 37.993 131.189 37.943C131.047 37.893 130.937 37.827 130.859 37.745L130.946 37.574C131.022 37.65 131.123 37.712 131.249 37.76C131.375 37.806 131.505 37.829 131.639 37.829C131.827 37.829 131.968 37.795 132.062 37.727C132.156 37.657 132.203 37.567 132.203 37.457C132.203 37.373 132.177 37.306 132.125 37.256C132.075 37.206 132.013 37.168 131.939 37.142C131.865 37.114 131.762 37.084 131.63 37.052C131.472 37.012 131.346 36.974 131.252 36.938C131.158 36.9 131.077 36.843 131.009 36.767C130.943 36.691 130.91 36.588 130.91 36.458C130.91 36.352 130.938 36.256 130.994 36.17C131.05 36.082 131.136 36.012 131.252 35.96C131.368 35.908 131.512 35.882 131.684 35.882C131.804 35.882 131.921 35.899 132.035 35.933C132.151 35.965 132.251 36.01 132.335 36.068L132.26 36.245C132.172 36.187 132.078 36.144 131.978 36.116C131.878 36.086 131.78 36.071 131.684 36.071C131.5 36.071 131.361 36.107 131.267 36.179C131.175 36.249 131.129 36.34 131.129 36.452C131.129 36.536 131.154 36.604 131.204 36.656C131.256 36.706 131.32 36.745 131.396 36.773C131.474 36.799 131.578 36.828 131.708 36.86C131.862 36.898 131.986 36.936 132.08 36.974C132.176 37.01 132.257 37.066 132.323 37.142C132.389 37.216 132.422 37.317 132.422 37.445C132.422 37.551 132.393 37.648 132.335 37.736C132.279 37.822 132.192 37.891 132.074 37.943C131.956 37.993 131.811 38.018 131.639 38.018ZM135.291 37.808V38H133.806V35.9H135.246V36.092H134.028V36.839H135.114V37.028H134.028V37.808H135.291ZM138.03 37.439H136.86L136.608 38H136.377L137.337 35.9H137.556L138.516 38H138.282L138.03 37.439ZM137.949 37.259L137.445 36.131L136.941 37.259H137.949ZM141.197 38L140.717 37.325C140.663 37.331 140.607 37.334 140.549 37.334H139.985V38H139.763V35.9H140.549C140.817 35.9 141.027 35.964 141.179 36.092C141.331 36.22 141.407 36.396 141.407 36.62C141.407 36.784 141.365 36.923 141.281 37.037C141.199 37.149 141.081 37.23 140.927 37.28L141.44 38H141.197ZM140.543 37.145C140.751 37.145 140.91 37.099 141.02 37.007C141.13 36.915 141.185 36.786 141.185 36.62C141.185 36.45 141.13 36.32 141.02 36.23C140.91 36.138 140.751 36.092 140.543 36.092H139.985V37.145H140.543ZM143.743 38.018C143.535 38.018 143.347 37.972 143.179 37.88C143.013 37.788 142.882 37.661 142.786 37.499C142.692 37.335 142.645 37.152 142.645 36.95C142.645 36.748 142.692 36.566 142.786 36.404C142.882 36.24 143.014 36.112 143.182 36.02C143.35 35.928 143.538 35.882 143.746 35.882C143.902 35.882 144.046 35.908 144.178 35.96C144.31 36.012 144.422 36.088 144.514 36.188L144.373 36.329C144.209 36.163 144.002 36.08 143.752 36.08C143.586 36.08 143.435 36.118 143.299 36.194C143.163 36.27 143.056 36.374 142.978 36.506C142.902 36.638 142.864 36.786 142.864 36.95C142.864 37.114 142.902 37.262 142.978 37.394C143.056 37.526 143.163 37.63 143.299 37.706C143.435 37.782 143.586 37.82 143.752 37.82C144.004 37.82 144.211 37.736 144.373 37.568L144.514 37.709C144.422 37.809 144.309 37.886 144.175 37.94C144.043 37.992 143.899 38.018 143.743 38.018ZM147.642 35.9V38H147.423V37.031H146.109V38H145.887V35.9H146.109V36.836H147.423V35.9H147.642Z" fill="#310062"/>
<path d="M29.4279 4.5C29.8634 4.5 30.2488 4.78182 30.3808 5.1968L36.8631 25.5696C36.9501 25.8432 36.9154 26.1411 36.7676 26.3873L34.2706 30.549C34.1021 30.8299 34.0887 31.1774 34.2352 31.4704C34.3975 31.795 34.7292 32 35.0921 32H58.25C58.6642 32 59 31.6642 59 31.25C59 30.8358 58.6642 30.5 58.25 30.5H37.7831C37.3506 30.5 37 30.1494 37 29.7169C37 29.575 37.0386 29.4357 37.1116 29.314L38.2387 27.4354C38.4029 27.1618 38.6879 26.9829 39.0057 26.954L59.7483 25.0683C60.1932 25.0279 60.5573 24.6973 60.6403 24.2583L63.7756 7.68589C63.8922 7.07001 63.4199 6.5 62.7931 6.5H33.7543C33.3078 6.5 32.9154 6.20402 32.7928 5.77472L32.2072 3.72528C32.0846 3.29598 31.6922 3 31.2457 3H24.3338C23.8882 3 23.5409 3.38607 23.5879 3.8291C23.6284 4.21055 23.9502 4.5 24.3338 4.5H29.4279Z" fill="url(#paint0_linear)"/>
<path d="M14.5 9C14.5 8.44772 14.9477 8 15.5 8H25.5C26.0523 8 26.5 8.44772 26.5 9C26.5 9.55228 26.0523 10 25.5 10H15.5C14.9477 10 14.5 9.55228 14.5 9Z" fill="url(#paint1_linear)"/>
<path d="M21 14.5C20.4477 14.5 20 14.9477 20 15.5C20 16.0523 20.4477 16.5 21 16.5H26.5C27.0523 16.5 27.5 16.0523 27.5 15.5C27.5 14.9477 27.0523 14.5 26.5 14.5H21Z" fill="url(#paint2_linear)"/>
<path d="M15 20.5C14.4477 20.5 14 20.9477 14 21.5C14 22.0523 14.4477 22.5 15 22.5H27.5C28.0523 22.5 28.5 22.0523 28.5 21.5C28.5 20.9477 28.0523 20.5 27.5 20.5H15Z" fill="url(#paint3_linear)"/>
<path d="M21.75 25.5C21.3358 25.5 21 25.8358 21 26.25C21 26.6642 21.3358 27 21.75 27H28.25C28.6642 27 29 26.6642 29 26.25C29 25.8358 28.6642 25.5 28.25 25.5H21.75Z" fill="url(#paint4_linear)"/>
<rect x="36" y="31" width="7" height="7" rx="3.5" fill="#FD53A3"/>
<rect x="55" y="31" width="7" height="7" rx="3.5" fill="#FA87BD"/>
<defs>
<linearGradient id="paint0_linear" x1="74.5" y1="27" x2="31" y2="27" gradientUnits="userSpaceOnUse">
<stop stop-color="#F8C1DB"/>
<stop offset="1" stop-color="#FF2A8E"/>
</linearGradient>
<linearGradient id="paint1_linear" x1="16.5" y1="28.5" x2="31" y2="28.5" gradientUnits="userSpaceOnUse">
<stop stop-color="#FF0091"/>
<stop offset="1" stop-color="#FFCEEA"/>
</linearGradient>
<linearGradient id="paint2_linear" x1="16.5" y1="28.5" x2="31" y2="28.5" gradientUnits="userSpaceOnUse">
<stop stop-color="#FF0091"/>
<stop offset="1" stop-color="#FFCEEA"/>
</linearGradient>
<linearGradient id="paint3_linear" x1="16.5" y1="28.5" x2="31" y2="28.5" gradientUnits="userSpaceOnUse">
<stop stop-color="#FF0091"/>
<stop offset="1" stop-color="#FFCEEA"/>
</linearGradient>
<linearGradient id="paint4_linear" x1="16.5" y1="28.5" x2="31" y2="28.5" gradientUnits="userSpaceOnUse">
<stop stop-color="#FF0091"/>
<stop offset="1" stop-color="#FFCEEA"/>
</linearGradient>
</defs>
</svg>
